<svg width="18" height="20" viewBox="0 0 18 20" fill="none" xmlns="http://www.w3.org/2000/svg">
<g clip-path="url(#clip0_74_3)">
<path d="M15.0857 13.125H7.54286C7.19714 13.125 6.91429 12.8438 6.91429 12.5V2.5C6.91429 2.15625 7.19714 1.875 7.54286 1.875H13.0468L15.7143 4.52734V12.5C15.7143 12.8438 15.4314 13.125 15.0857 13.125ZM7.54286 15H15.0857C16.4725 15 17.6 13.8789 17.6 12.5V4.52734C17.6 4.03125 17.3996 3.55469 17.0461 3.20312L14.3825 0.550781C14.0289 0.199219 13.5496 0 13.0507 0H7.54286C6.15607 0 5.02857 1.12109 5.02857 2.5V12.5C5.02857 13.8789 6.15607 15 7.54286 15ZM2.51429 5C1.1275 5 0 6.12109 0 7.5V17.5C0 18.8789 1.1275 20 2.51429 20H10.0571C11.4439 20 12.5714 18.8789 12.5714 17.5V16.25H10.6857V17.5C10.6857 17.8438 10.4029 18.125 10.0571 18.125H2.51429C2.16857 18.125 1.88571 17.8438 1.88571 17.5V7.5C1.88571 7.15625 2.16857 6.875 2.51429 6.875H3.77143V5H2.51429Z" fill="#C0C0C0" fill-opacity="0.8"/>
</g>
<defs>
<clipPath id="clip0_74_3">
<rect width="17.6" height="20" fill="white"/>
</clipPath>
</defs>
</svg>
